<?xml version="1.0" encoding="UTF-8"?>
<svg width="217px" height="199px" viewBox="0 0 217 199" version="1.1" xmlns="http://www.w3.org/2000/svg" xmlns:xlink="http://www.w3.org/1999/xlink">
    <title>Group 10</title>
    <defs>
        <rect id="path-1" x="0" y="0" width="178" height="121" rx="8"></rect>
        <filter x="-8.1%" y="-10.3%" width="116.3%" height="124.0%" filterUnits="objectBoundingBox" id="filter-2">
            <feOffset dx="0" dy="2" in="SourceAlpha" result="shadowOffsetOuter1"></feOffset>
            <feGaussianBlur stdDeviation="4.5" in="shadowOffsetOuter1" result="shadowBlurOuter1"></feGaussianBlur>
            <feColorMatrix values="0 0 0 0 0.505882353   0 0 0 0 0.505882353   0 0 0 0 0.505882353  0 0 0 1 0" type="matrix" in="shadowBlurOuter1"></feColorMatrix>
        </filter>
        <rect id="path-3" x="136" y="60" width="63" height="121" rx="8"></rect>
        <filter x="-23.0%" y="-10.3%" width="146.0%" height="124.0%" filterUnits="objectBoundingBox" id="filter-4">
            <feOffset dx="0" dy="2" in="SourceAlpha" result="shadowOffsetOuter1"></feOffset>
            <feGaussianBlur stdDeviation="4.5" in="shadowOffsetOuter1" result="shadowBlurOuter1"></feGaussianBlur>
            <feColorMatrix values="0 0 0 0 0.505882353   0 0 0 0 0.505882353   0 0 0 0 0.505882353  0 0 0 1 0" type="matrix" in="shadowBlurOuter1"></feColorMatrix>
        </filter>
    </defs>
    <g id="Dracarys" stroke="none" stroke-width="1" fill="none" fill-rule="evenodd">
        <g id="Amplify-Service-home-page" transform="translate(-751.000000, -929.000000)">
            <g id="Group-10" transform="translate(760.000000, 936.000000)">
                <g id="Rectangle">
                    <use fill="black" fill-opacity="1" filter="url(#filter-2)" xlink:href="#path-1"></use>
                    <use fill="#FFFFFF" fill-rule="evenodd" xlink:href="#path-1"></use>
                </g>
                <circle id="Oval" fill="#F2F3F3" cx="14.5" cy="13.5" r="3.5"></circle>
                <circle id="Oval-Copy-3" fill="#F2F3F3" cx="24.5" cy="13.5" r="3.5"></circle>
                <circle id="Oval-Copy-4" fill="#F2F3F3" cx="34.5" cy="13.5" r="3.5"></circle>
                <g id="Group-5" transform="translate(48.000000, 30.000000)" fill="#F2F3F3">
                    <path d="M25.2752512,0 L3.72474878,0 C1.66914773,0 0,1.67159929 0,3.72480539 L0,25.2727872 C0,27.3283881 1.67154258,28.9975358 3.72474878,28.9975358 L25.2752512,29 C27.3308522,29 29,27.3284574 29,25.2752513 L29,3.72474867 C29,1.67160559 27.3284574,0 25.2752512,0 L25.2752512,0 Z" id="Fill-1"></path>
                    <path d="M67.7247487,29 L89.2752513,29 C91.3308523,29 93,27.3284574 93,25.2752513 L93,3.72474867 C93,1.66914772 91.3284574,0 89.2752513,0 L67.7247487,0 C65.6716056,0 64,1.67154257 64,3.72474867 L64,25.2727304 C64,27.3307893 65.6715426,29 67.7247487,29 L67.7247487,29 Z" id="Fill-2"></path>
                    <path d="M25.2752512,45 L3.72474878,45 C1.66914773,45 0,46.6714006 0,48.7244324 L0,70.2731052 C0,72.3285316 1.67154258,73.9975379 3.72474878,73.9975379 L25.2752512,74 C27.3308522,74 29,72.3285997 29,70.2755673 L29,48.7268964 C29,46.67147 27.3284574,45 25.2752512,45 L25.2752512,45 Z" id="Fill-3"></path>
                    <path d="M89.2727304,45 L67.7247487,45 C65.6716056,45 64,46.6715426 64,48.7247486 L64,70.2752511 C64,72.330852 65.6715426,74 67.7247487,74 L89.2752513,74 C91.3308523,74 93,72.3284578 93,70.2752511 L93,48.7272695 C93,46.6716686 91.3284574,45 89.2727935,45 L89.2727304,45 Z M86.2520678,60.7946686 L79.7922739,60.7946686 L79.7922739,67.2569833 C79.7922739,67.9709014 79.2137474,68.5494469 78.4998109,68.5494469 C77.7858934,68.5494469 77.207348,67.9709203 77.207348,67.2569833 L77.207348,60.7946686 L70.7450332,60.7946686 C70.0311157,60.7946686 69.4525702,60.2136779 69.4525702,59.5022056 C69.4525702,58.7882881 70.0310968,58.2097427 70.7450332,58.2097427 L77.207348,58.2097427 L77.207348,51.747428 C77.207348,51.0335105 77.7858745,50.454965 78.4998109,50.454965 C79.2137284,50.454965 79.7922739,51.0334915 79.7922739,51.747428 L79.7922739,58.2097427 L86.2545887,58.2097427 C86.9685062,58.2097427 87.5470516,58.7882692 87.5470516,59.5022056 C87.5470516,60.2136653 86.9660609,60.7946686 86.2521308,60.7946686 L86.2520678,60.7946686 Z" id="Fill-4"></path>
                </g>
                <g id="Rectangle">
                    <use fill="black" fill-opacity="1" filter="url(#filter-4)" xlink:href="#path-3"></use>
                    <use fill="#FFFFFF" fill-rule="evenodd" xlink:href="#path-3"></use>
                </g>
                <path d="M162.045889,81 L144.954111,81 C143.323807,81 142,82.3257512 142,83.954156 L142,101.043935 C142,102.674239 143.325706,103.998046 144.954111,103.998046 L162.045889,104 C163.676193,104 165,102.674294 165,101.045889 L165,83.954111 C165,82.3257562 163.674294,81 162.045889,81 L162.045889,81 Z" id="Fill-1" fill="#F2F3F3"></path>
                <path d="M172.954111,104 L190.045889,104 C191.676193,104 193,102.674294 193,101.045889 L193,83.954111 C193,82.3238068 191.674294,81 190.045889,81 L172.954111,81 C171.325756,81 170,82.3257062 170,83.954111 L170,101.04389 C170,102.676143 171.325706,104 172.954111,104 L172.954111,104 Z" id="Fill-2" fill="#F2F3F3"></path>
                <path d="M162.045889,122 L144.954111,122 C143.323807,122 142,123.325594 142,124.95386 L142,142.044187 C142,143.674353 143.325706,144.998047 144.954111,144.998047 L162.045889,145 C163.676193,145 165,143.674407 165,142.04614 L165,124.955814 C165,123.325649 163.674294,122 162.045889,122 L162.045889,122 Z" id="Fill-3" fill="#F2F3F3"></path>
                <path d="M190.04389,122 L172.954111,122 C171.325756,122 170,123.325706 170,124.954111 L170,142.045889 C170,143.676193 171.325706,145 172.954111,145 L190.045889,145 C191.676193,145 193,143.674294 193,142.045889 L193,124.95611 C193,123.325806 191.674294,122 190.04394,122 L190.04389,122 Z M187.648192,134.526806 L182.524907,134.526806 L182.524907,139.65209 C182.524907,140.218301 182.066075,140.677148 181.49985,140.677148 C180.93364,140.677148 180.474793,140.218316 180.474793,139.65209 L180.474793,134.526806 L175.349509,134.526806 C174.783299,134.526806 174.324452,134.06602 174.324452,133.501749 C174.324452,132.935539 174.783284,132.476692 175.349509,132.476692 L180.474793,132.476692 L180.474793,127.351408 C180.474793,126.785198 180.933625,126.326352 181.49985,126.326352 C182.06606,126.326352 182.524907,126.785183 182.524907,127.351408 L182.524907,132.476692 L187.650191,132.476692 C188.216401,132.476692 188.675248,132.935524 188.675248,133.501749 C188.675248,134.06601 188.214462,134.526806 187.648242,134.526806 L187.648192,134.526806 Z" id="Fill-4" fill="#F2F3F3"></path>
                <circle id="Oval" fill="#F2F3F3" cx="167.5" cy="168.5" r="5.5"></circle>
            </g>
        </g>
    </g>
</svg>